# xmcd
#
# Track frame offsets: 
#        150
#        12004
#        24640
#        37573
#        49838
#        62253
#        73654
#        85066
#        97362
#        107874
#        120678
#        132675
#        143379
#        155682
#        166805
#        179326
#        190368
#        202477
#        212724
#        223522
#        235777
#        247464
#        258373
#        268472
#        280648
#
# Disc length: 3890 seconds
#
# Revision: 0
# Processed by: cddbd v1.5.2PL0 Copyright (c) Steve Scherf et al.
# Submitted via: ExactAudioCopy v0.99pb5
#
DISCID=7b0f3019
DTITLE=Andrew "Smokey" Hogg - Serve It To The Right, Combo and Modern 
DTITLE=Recordings
DYEAR=2002
DGENRE=Blues
TTITLE0=River Hip Mama
TTITLE1=Good Morning Little Baby (aka Good Morning Little Shoolgirl)
TTITLE2=I Believe to My Soul (aka I Bleed Through My Soul) [Slow Versi
TTITLE2=on]
TTITLE3=Worried Blues
TTITLE4=Come On Home
TTITLE5=You're Gonna Look Like A Monkey (When You Get Old)
TTITLE6=Can't Go On This Way 
TTITLE7=Patrol Wagon Blues
TTITLE8=My Woman (AKA Lucy Mae Blues)
TTITLE9=Hello Little Girl
TTITLE10=Louise
TTITLE11=Can't Do Nothin' (aka Believe I'll Change Towns)
TTITLE12=Serve It To The Right (aka Serve It To Me Right)
TTITLE13=Talk It Over 
TTITLE14=Do You Remember 
TTITLE15=Whoa Mule
TTITLE16=Sleepless Blues
TTITLE17=Two Mama Blues 
TTITLE18=What More Can a Woman Do 
TTITLE19=Classification Blues
TTITLE20=Possum Hunt
TTITLE21=Be My So and So (aka Please Be My So And So)
TTITLE22=Going Back To Chicago
TTITLE23=I Feel Good (aka I Feel So Good)
TTITLE24=I Believe To My Soul (aka I Bleed Through My Soul) [Fast Vers
TTITLE24=ion]
EXTD=
EXTT0=
EXTT1=
EXTT2=
EXTT3=
EXTT4=
EXTT5=
EXTT6=
EXTT7=
EXTT8=
EXTT9=
EXTT10=
EXTT11=
EXTT12=
EXTT13=
EXTT14=
EXTT15=
EXTT16=
EXTT17=
EXTT18=
EXTT19=
EXTT20=
EXTT21=
EXTT22=
EXTT23=
EXTT24=
PLAYORDER=
